nColumns=19
nRows=77
DataType=double
version=3
OpenSimVersion=4.1
endheader
time	ground_force_1_vx	ground_force_1_vy	ground_force_1_vz	ground_force_1_px	ground_force_1_py	ground_force_1_pz	ground_force_1_mx	ground_force_1_my	ground_force_1_mz	ground_force_2_vx	ground_force_2_vy	ground_force_2_vz	ground_force_2_px	ground_force_2_py	ground_force_2_pz	ground_force_2_mx	ground_force_2_my	ground_force_2_mz
0.775	0	0	0	-0.000890438	0	8.1443e-05	0	0	0	0	0	0	-0.000890438	0	8.1443e-05	0	0	0
0.783333	-7.90714	22.8189	-0.984229	0.956392	0	-0.180226	0	-4.04266	0	0	0	0	-0.000890438	0	8.1443e-05	0	0	0
0.791667	-10.8056	55.3009	-3.53876	0.948878	0	-0.212661	0	-3.4508	0	0	0	0	-0.000890438	0	8.14429e-05	0	0	0
0.8	-8.27005	127.182	-7.39089	0.941051	0	-0.230404	-0	0.744958	-0	0	0	0	-0.000890438	0	8.14428e-05	0	0	0
0.808333	0.782272	262.638	-11.0202	0.932349	0	-0.241278	-0	6.88581	-0	0	0	0	-0.000890438	0	8.14427e-05	0	0	0
0.816667	8.87958	468.111	-10.9542	0.925468	0	-0.248438	-0	10.2298	-0	0	0	0	-0.000890438	0	8.14425e-05	0	0	0
0.825	4.07069	706.923	-3.9935	0.922086	0	-0.252958	-0	6.73874	-0	0	0	0	-0.000890438	0	8.14422e-05	0	0	0
0.833333	-20.0574	911.904	8.74207	0.921619	0	-0.255493	0	-2.23365	0	0	0	0	-0.000890438	0	8.14419e-05	0	0	0
0.841667	-58.8095	1049.23	20.5437	0.922027	0	-0.256878	0	-9.87215	0	0	0	0	-0.000890438	0	8.14416e-05	0	0	0
0.85	-98.6737	1145.54	24.3095	0.920484	0	-0.257975	0	-10.0456	0	0	0	0	-0.000890438	0	8.14412e-05	0	0	0
0.858333	-125.531	1240.93	19.6729	0.915448	0	-0.258991	0	-3.58008	0	0	0	0	-0.000890438	0	8.14408e-05	0	0	0
0.866667	-135.427	1348.87	12.94	0.907711	0	-0.25927	-0	2.86904	-0	0	0	0	-0.000890439	0	8.14404e-05	0	0	0
0.875	-133.71	1456.97	9.26637	0.898706	0	-0.258519	-0	4.32554	-0	0	0	0	-0.000890439	0	8.14399e-05	0	0	0
0.883333	-123.259	1546.65	7.32829	0.888875	0	-0.257444	-0	2.25769	-0	0	0	0	-0.000890439	0	8.14393e-05	0	0	0
0.891667	-105.901	1606.65	3.18045	0.878299	0	-0.256785	-0	1.20267	-0	0	0	0	-0.000890439	0	8.14387e-05	0	0	0
0.9	-87.0118	1635.07	-3.15801	0.86766	0	-0.256435	-0	2.58273	-0	0	0	0	-0.000890439	0	8.14381e-05	0	0	0
0.908333	-70.095	1637.25	-7.94528	0.857311	0	-0.255778	-0	3.9233	-0	0	0	0	-0.000890439	0	8.14374e-05	0	0	0
0.916667	-54.3355	1619.26	-9.46349	0.847037	0	-0.254634	-0	3.34073	-0	0	0	0	-0.00089044	0	8.14367e-05	0	0	0
0.925	-37.5147	1582.86	-10.1301	0.836564	0	-0.253477	-0	2.16415	-0	0	0	0	-0.00089044	0	8.1436e-05	0	0	0
0.933333	-20.1664	1527.44	-12.2363	0.82588	0	-0.252807	-0	2.37405	-0	0	0	0	-0.00089044	0	8.14352e-05	0	0	0
0.941667	-4.78015	1455.83	-14.2496	0.815285	0	-0.252512	-0	3.38365	-0	0	0	0	-0.00089044	0	8.14343e-05	0	0	0
0.95	9.10079	1374.88	-13.033	0.804926	0	-0.252093	-0	2.97216	-0	0	0	0	-0.000890441	0	8.14334e-05	0	0	0
0.958333	23.9117	1289.54	-8.16743	0.794484	0	-0.251521	-0	0.575448	-0	0	0	0	-0.000890441	0	8.14325e-05	0	0	0
0.966667	41.2348	1200.58	-2.07438	0.783368	0	-0.251323	0	-2.00715	0	0	0	0	-0.000890441	0	8.14315e-05	0	0	0
0.975	59.7344	1107.15	3.50202	0.771455	0	-0.251793	0	-3.15993	0	0	0	0	-0.000890441	0	8.14305e-05	0	0	0
0.983333	76.4848	1010.02	9.19019	0.759171	0	-0.252587	0	-3.34859	0	0	0	0	-0.000890442	0	8.14295e-05	0	0	0
0.991667	89.5173	911.923	15.9873	0.746931	0	-0.253186	0	-3.97691	0	0	0	0	-0.000890442	0	8.14284e-05	0	0	0
1	98.0848	814.325	23.0974	0.734723	0	-0.253509	0	-5.28452	0	0	0	0	-0.000890442	0	8.14272e-05	0	0	0
1.00833	102.339	717.193	28.625	0.722281	0	-0.253857	0	-6.21975	0	0	0	0	-0.000890443	0	8.1426e-05	0	0	0
1.01667	102.58	622.29	31.6657	0.709684	0	-0.254282	0	-6.03357	0	0	0	0	-0.000890443	0	8.14248e-05	0	0	0
1.025	99.0681	533.049	32.8075	0.697206	0	-0.254212	0	-5.16858	0	0	0	0	-0.000890444	0	8.14236e-05	0	0	0
1.03333	92.0707	451.17	32.7948	0.685469	0	-0.253098	0	-4.47324	0	0	0	0	-0.000890444	0	8.14223e-05	0	0	0
1.04167	81.783	376.02	31.5286	0.675396	0	-0.251093	0	-4.1362	0	0	0	0	-0.000890444	0	8.14209e-05	0	0	0
1.05	69.2223	306.538	28.6005	0.667124	0	-0.248604	0	-3.73185	0	0	0	0	-0.000890445	0	8.14195e-05	0	0	0
1.05833	56.2114	243.148	24.2369	0.659895	0	-0.24543	0	-2.98777	0	0	0	0	-0.000890445	0	8.14181e-05	0	0	0
1.06667	44.9297	188.046	19.2743	0.652593	0	-0.240691	0	-2.10252	0	0	0	0	-0.000890446	0	8.14166e-05	0	0	0
1.075	36.3223	142.4	14.4452	0.644586	0	-0.233879	0	-1.39699	0	0	0	0	-0.000890446	0	8.14151e-05	0	0	0
1.08333	29.4261	104.958	10.0961	0.636468	0	-0.225171	0	-0.993039	0	0	0	0	-0.000890447	0	8.14136e-05	0	0	0
1.09167	23.1133	74.6339	6.49357	0.631846	0	-0.213985	0	-0.874561	0	0	0	0	-0.000890447	0	8.1412e-05	0	0	0
1.1	17.3286	51.6977	3.93243	0.635433	0	-0.198975	0	-1.00896	0	0	0	0	-0.000890447	0	8.14104e-05	0	0	0
1.10833	12.8593	35.8582	2.42625	0.645852	0	-0.180118	0	-1.30075	0	0	0	0	-0.000890448	0	8.14087e-05	0	0	0
1.11667	9.63422	24.8543	1.6135	0.66034	0	-0.160388	0	-1.58936	0	0	0	0	-0.000890448	0	8.1407e-05	0	0	0
1.125	6.54651	16.1677	1.15071	0.685296	0	-0.140871	0	-1.80988	0	0	0	0	-0.000890449	0	8.14053e-05	0	0	0
1.13333	0	0	0	-0.000890461	0	8.14127e-05	0	0	0	0	0	0	-0.00089045	0	8.14035e-05	0	0	0
1.14167	0	0	0	-0.000890462	0	8.14113e-05	0	0	0	0	0	0	-0.00089045	0	8.14017e-05	0	0	0
1.15	0	0	0	-0.000890463	0	8.14099e-05	0	0	0	0	0	0	-0.000890451	0	8.13999e-05	0	0	0
1.15833	0	0	0	-0.000890464	0	8.14085e-05	0	0	0	0	0	0	-0.000890451	0	8.1398e-05	0	0	0
1.16667	0	0	0	-0.000890465	0	8.1407e-05	0	0	0	0	0	0	-0.000890452	0	8.13961e-05	0	0	0
1.175	0	0	0	-0.000890466	0	8.14055e-05	0	0	0	-7.36366	18.758	-1.42944	0.990308	0	-0.230736	0	-1.04001	0
1.18333	0	0	0	-0.000890468	0	8.1404e-05	0	0	0	-15.1039	45.6985	-3.43347	0.970678	0	-0.25817	0	-0.570829	0
1.19167	0	0	0	-0.000890469	0	8.14024e-05	0	0	0	-19.4574	104.782	-5.89278	0.955993	0	-0.269919	0	-0.604423	0
1.2	0	0	0	-0.00089047	0	8.14008e-05	0	0	0	-14.0678	218.5	-8.91995	0.943905	0	-0.27529	0	-1.42374	0
1.20833	0	0	0	-0.000890471	0	8.13992e-05	0	0	0	-3.20974	399.664	-12.209	0.93523	0	-0.276461	0	-3.03115	0
1.21667	0	0	0	-0.000890473	0	8.13976e-05	0	0	0	-0.5987	620.33	-15.4249	0.930905	0	-0.275476	0	-4.33811	0
1.225	0	0	0	-0.000890474	0	8.13959e-05	0	0	0	-16.2604	816.475	-19.1171	0.930048	0	-0.273934	0	-3.25973	0
1.23333	0	0	0	-0.000890475	0	8.13942e-05	0	0	0	-48.814	947.451	-24.0187	0.930334	0	-0.27313	-0	1.115	-0
1.24167	0	0	0	-0.000890476	0	8.13925e-05	0	0	0	-86.9676	1031.66	-28.3724	0.928813	0	-0.273889	-0	6.15084	-0
1.25	0	0	0	-0.000890478	0	8.13908e-05	0	0	0	-118.356	1113.71	-27.4971	0.924262	0	-0.275373	-0	6.95487	-0
1.25833	0	0	0	-0.000890479	0	8.1389e-05	0	0	0	-136.784	1218.76	-18.5513	0.917539	0	-0.276059	-0	1.49808	-0
1.26667	0	0	0	-0.00089048	0	8.13872e-05	0	0	0	-140.324	1338.01	-5.07872	0.908876	0	-0.276132	0	-6.23919	0
1.275	0	0	0	-0.000890482	0	8.13854e-05	0	0	0	-130.16	1444.63	5.99943	0.898454	0	-0.276846	0	-9.96444	0
1.28333	0	0	0	-0.000890483	0	8.13835e-05	0	0	0	-112.39	1522.78	12.0585	0.887284	0	-0.278516	0	-7.8931	0
1.29167	0	0	0	-0.000890485	0	8.13817e-05	0	0	0	-94.4404	1575.35	16.9134	0.87644	0	-0.280303	0	-4.25943	0
1.3	0	0	0	-0.000890486	0	8.13798e-05	0	0	0	-78.5563	1608.73	24.6965	0.866144	0	-0.281479	0	-3.7219	0
1.30833	0	0	0	-0.000890488	0	8.13779e-05	0	0	0	-62.3545	1622.49	34.2125	0.855708	0	-0.282336	0	-6.0997	0
1.31667	0	0	0	-0.000890489	0	8.13759e-05	0	0	0	-44.967	1613.44	41.2063	0.844842	0	-0.283615	0	-7.86792	0
1.325	0	0	0	-0.000890491	0	8.1374e-05	0	0	0	-28.1315	1582.21	44.3454	0.833978	0	-0.285362	0	-7.37809	0
1.33333	0	0	0	-0.000890492	0	8.1372e-05	0	0	0	-13.6364	1533.34	46.0693	0.823609	0	-0.286894	0	-6.37927	0
1.34167	0	0	0	-0.000890494	0	8.137e-05	0	0	0	-1.77568	1470.79	47.8808	0.813874	0	-0.287753	0	-6.57173	0
1.35	0	0	0	-0.000890495	0	8.1368e-05	0	0	0	9.37394	1394.9	47.7068	0.804356	0	-0.288285	0	-6.9206	0
1.35833	0	0	0	-0.000890497	0	8.13659e-05	0	0	0	22.0991	1305.88	43.0175	0.794406	0	-0.289008	0	-5.4855	0
1.36667	0	0	0	-0.000890498	0	8.13638e-05	0	0	0	37.3158	1208.92	34.6105	0.783807	0	-0.289676	0	-2.53713	0
1.375	0	0	0	-0.0008905	0	8.13617e-05	0	0	0	54.2075	1110.59	25.5758	0.772821	0	-0.289528	0	-0.248322	0
1.38333	0	0	0	-0.000890502	0	8.13596e-05	0	0	0	70.8786	1012.14	17.4297	0.761651	0	-0.288351	-0	0.321262	-0
1.39167	0	0	0	-0.000890503	0	8.13575e-05	0	0	0	85.0362	911.21	9.12391	0.750443	0	-0.286777	-0	0.42098	-0
1.4	0	0	0	-0.000890505	0	8.13554e-05	0	0	0	95.1168	807.594	-0.11529	0.739273	0	-0.285511	-0	1.48218	-0
1.40833	0	0	0	-0.000890507	0	8.13532e-05	0	0	0	100.863	705.001	-8.65049	0.727933	0	-0.284514	-0	2.98758	-0
